<?xml version="1.0" encoding="utf-8" standalone="no"?>
<!DOCTYPE svg PUBLIC "-//W3C//DTD SVG 1.1//EN"
  "http://www.w3.org/Graphics/SVG/1.1/DTD/svg11.dtd">
<svg xmlns:xlink="http://www.w3.org/1999/xlink" width="496.919063pt" height="352.529844pt" viewBox="0 0 496.919063 352.529844" xmlns="http://www.w3.org/2000/svg" version="1.1">
 <metadata>
  <rdf:RDF xmlns:dc="http://purl.org/dc/elements/1.1/" xmlns:cc="http://creativecommons.org/ns#" xmlns:rdf="http://www.w3.org/1999/02/22-rdf-syntax-ns#">
   <cc:Work>
    <dc:type rdf:resource="http://purl.org/dc/dcmitype/StillImage"/>
    <dc:date>2026-07-10T19:20:58.548109</dc:date>
    <dc:format>image/svg+xml</dc:format>
    <dc:creator>
     <cc:Agent>
      <dc:title>Matplotlib v3.10.9, https://matplotlib.org/</dc:title>
     </cc:Agent>
    </dc:creator>
   </cc:Work>
  </rdf:RDF>
 </metadata>
 <defs>
  <style type="text/css">*{stroke-linejoin: round; stroke-linecap: butt}</style>
 </defs>
 <g id="figure_1">
  <g id="patch_1">
   <path d="M 0 352.529844 
L 496.919063 352.529844 
L 496.919063 0 
L 0 0 
z
" style="fill: #ffffff"/>
  </g>
  <g id="axes_1">
   <g id="patch_2">
    <path d="M 48.90125 313.037969 
L 478.58625 313.037969 
L 478.58625 23.077969 
L 48.90125 23.077969 
z
" style="fill: #ffffff"/>
   </g>
   <g id="matplotlib.axis_1">
    <g id="xtick_1">
     <g id="line2d_1">
      <path d="M 48.90125 313.037969 
L 48.90125 23.077969 
" clip-path="url(#p1c5399136b)" style="fill: none; stroke-dasharray: 2.96,1.28; stroke-dashoffset: 0; stroke: #b0b0b0; stroke-opacity: 0.35; stroke-width: 0.8"/>
     </g>
     <g id="line2d_2">
      <defs>
       <path id="m69a9d0680d" d="M 0 0 
L 0 3.5 
" style="stroke: #000000; stroke-width: 0.8"/>
      </defs>
      <g>
       <use xlink:href="#m69a9d0680d" x="48.90125" y="313.037969" style="stroke: #000000; stroke-width: 0.8"/>
      </g>
     </g>
     <g id="text_1">
      <!-- 0.0 -->
      <g transform="translate(40.949688 327.636406) scale(0.1 -0.1)">
       <defs>
        <path id="DejaVuSans-30" d="M 2034 4250 
Q 1547 4250 1301 3770 
Q 1056 3291 1056 2328 
Q 1056 1369 1301 889 
Q 1547 409 2034 409 
Q 2525 409 2770 889 
Q 3016 1369 3016 2328 
Q 3016 3291 2770 3770 
Q 2525 4250 2034 4250 
z
M 2034 4750 
Q 2819 4750 3233 4129 
Q 3647 3509 3647 2328 
Q 3647 1150 3233 529 
Q 2819 -91 2034 -91 
Q 1250 -91 836 529 
Q 422 1150 422 2328 
Q 422 3509 836 4129 
Q 1250 4750 2034 4750 
z
" transform="scale(0.015625)"/>
        <path id="DejaVuSans-2e" d="M 684 794 
L 1344 794 
L 1344 0 
L 684 0 
L 684 794 
z
" transform="scale(0.015625)"/>
       </defs>
       <use xlink:href="#DejaVuSans-30"/>
       <use xlink:href="#DejaVuSans-2e" transform="translate(63.623047 0)"/>
       <use xlink:href="#DejaVuSans-30" transform="translate(95.410156 0)"/>
      </g>
     </g>
    </g>
    <g id="xtick_2">
     <g id="line2d_3">
      <path d="M 102.611875 313.037969 
L 102.611875 23.077969 
" clip-path="url(#p1c5399136b)" style="fill: none; stroke-dasharray: 2.96,1.28; stroke-dashoffset: 0; stroke: #b0b0b0; stroke-opacity: 0.35; stroke-width: 0.8"/>
     </g>
     <g id="line2d_4">
      <g>
       <use xlink:href="#m69a9d0680d" x="102.611875" y="313.037969" style="stroke: #000000; stroke-width: 0.8"/>
      </g>
     </g>
     <g id="text_2">
      <!-- 2.5 -->
      <g transform="translate(94.660313 327.636406) scale(0.1 -0.1)">
       <defs>
        <path id="DejaVuSans-32" d="M 1228 531 
L 3431 531 
L 3431 0 
L 469 0 
L 469 531 
Q 828 903 1448 1529 
Q 2069 2156 2228 2338 
Q 2531 2678 2651 2914 
Q 2772 3150 2772 3378 
Q 2772 3750 2511 3984 
Q 2250 4219 1831 4219 
Q 1534 4219 1204 4116 
Q 875 4013 500 3803 
L 500 4441 
Q 881 4594 1212 4672 
Q 1544 4750 1819 4750 
Q 2544 4750 2975 4387 
Q 3406 4025 3406 3419 
Q 3406 3131 3298 2873 
Q 3191 2616 2906 2266 
Q 2828 2175 2409 1742 
Q 1991 1309 1228 531 
z
" transform="scale(0.015625)"/>
        <path id="DejaVuSans-35" d="M 691 4666 
L 3169 4666 
L 3169 4134 
L 1269 4134 
L 1269 2991 
Q 1406 3038 1543 3061 
Q 1681 3084 1819 3084 
Q 2600 3084 3056 2656 
Q 3513 2228 3513 1497 
Q 3513 744 3044 326 
Q 2575 -91 1722 -91 
Q 1428 -91 1123 -41 
Q 819 9 494 109 
L 494 744 
Q 775 591 1075 516 
Q 1375 441 1709 441 
Q 2250 441 2565 725 
Q 2881 1009 2881 1497 
Q 2881 1984 2565 2268 
Q 2250 2553 1709 2553 
Q 1456 2553 1204 2497 
Q 953 2441 691 2322 
L 691 4666 
z
" transform="scale(0.015625)"/>
       </defs>
       <use xlink:href="#DejaVuSans-32"/>
       <use xlink:href="#DejaVuSans-2e" transform="translate(63.623047 0)"/>
       <use xlink:href="#DejaVuSans-35" transform="translate(95.410156 0)"/>
      </g>
     </g>
    </g>
    <g id="xtick_3">
     <g id="line2d_5">
      <path d="M 156.3225 313.037969 
L 156.3225 23.077969 
" clip-path="url(#p1c5399136b)" style="fill: none; stroke-dasharray: 2.96,1.28; stroke-dashoffset: 0; stroke: #b0b0b0; stroke-opacity: 0.35; stroke-width: 0.8"/>
     </g>
     <g id="line2d_6">
      <g>
       <use xlink:href="#m69a9d0680d" x="156.3225" y="313.037969" style="stroke: #000000; stroke-width: 0.8"/>
      </g>
     </g>
     <g id="text_3">
      <!-- 5.0 -->
      <g transform="translate(148.370938 327.636406) scale(0.1 -0.1)">
       <use xlink:href="#DejaVuSans-35"/>
       <use xlink:href="#DejaVuSans-2e" transform="translate(63.623047 0)"/>
       <use xlink:href="#DejaVuSans-30" transform="translate(95.410156 0)"/>
      </g>
     </g>
    </g>
    <g id="xtick_4">
     <g id="line2d_7">
      <path d="M 210.033125 313.037969 
L 210.033125 23.077969 
" clip-path="url(#p1c5399136b)" style="fill: none; stroke-dasharray: 2.96,1.28; stroke-dashoffset: 0; stroke: #b0b0b0; stroke-opacity: 0.35; stroke-width: 0.8"/>
     </g>
     <g id="line2d_8">
      <g>
       <use xlink:href="#m69a9d0680d" x="210.033125" y="313.037969" style="stroke: #000000; stroke-width: 0.8"/>
      </g>
     </g>
     <g id="text_4">
      <!-- 7.5 -->
      <g transform="translate(202.081563 327.636406) scale(0.1 -0.1)">
       <defs>
        <path id="DejaVuSans-37" d="M 525 4666 
L 3525 4666 
L 3525 4397 
L 1831 0 
L 1172 0 
L 2766 4134 
L 525 4134 
L 525 4666 
z
" transform="scale(0.015625)"/>
       </defs>
       <use xlink:href="#DejaVuSans-37"/>
       <use xlink:href="#DejaVuSans-2e" transform="translate(63.623047 0)"/>
       <use xlink:href="#DejaVuSans-35" transform="translate(95.410156 0)"/>
      </g>
     </g>
    </g>
    <g id="xtick_5">
     <g id="line2d_9">
      <path d="M 263.74375 313.037969 
L 263.74375 23.077969 
" clip-path="url(#p1c5399136b)" style="fill: none; stroke-dasharray: 2.96,1.28; stroke-dashoffset: 0; stroke: #b0b0b0; stroke-opacity: 0.35; stroke-width: 0.8"/>
     </g>
     <g id="line2d_10">
      <g>
       <use xlink:href="#m69a9d0680d" x="263.74375" y="313.037969" style="stroke: #000000; stroke-width: 0.8"/>
      </g>
     </g>
     <g id="text_5">
      <!-- 10.0 -->
      <g transform="translate(252.610938 327.636406) scale(0.1 -0.1)">
       <defs>
        <path id="DejaVuSans-31" d="M 794 531 
L 1825 531 
L 1825 4091 
L 703 3866 
L 703 4441 
L 1819 4666 
L 2450 4666 
L 2450 531 
L 3481 531 
L 3481 0 
L 794 0 
L 794 531 
z
" transform="scale(0.015625)"/>
       </defs>
       <use xlink:href="#DejaVuSans-31"/>
       <use xlink:href="#DejaVuSans-30" transform="translate(63.623047 0)"/>
       <use xlink:href="#DejaVuSans-2e" transform="translate(127.246094 0)"/>
       <use xlink:href="#DejaVuSans-30" transform="translate(159.033203 0)"/>
      </g>
     </g>
    </g>
    <g id="xtick_6">
     <g id="line2d_11">
      <path d="M 317.454375 313.037969 
L 317.454375 23.077969 
" clip-path="url(#p1c5399136b)" style="fill: none; stroke-dasharray: 2.96,1.28; stroke-dashoffset: 0; stroke: #b0b0b0; stroke-opacity: 0.35; stroke-width: 0.8"/>
     </g>
     <g id="line2d_12">
      <g>
       <use xlink:href="#m69a9d0680d" x="317.454375" y="313.037969" style="stroke: #000000; stroke-width: 0.8"/>
      </g>
     </g>
     <g id="text_6">
      <!-- 12.5 -->
      <g transform="translate(306.321563 327.636406) scale(0.1 -0.1)">
       <use xlink:href="#DejaVuSans-31"/>
       <use xlink:href="#DejaVuSans-32" transform="translate(63.623047 0)"/>
       <use xlink:href="#DejaVuSans-2e" transform="translate(127.246094 0)"/>
       <use xlink:href="#DejaVuSans-35" transform="translate(159.033203 0)"/>
      </g>
     </g>
    </g>
    <g id="xtick_7">
     <g id="line2d_13">
      <path d="M 371.165 313.037969 
L 371.165 23.077969 
" clip-path="url(#p1c5399136b)" style="fill: none; stroke-dasharray: 2.96,1.28; stroke-dashoffset: 0; stroke: #b0b0b0; stroke-opacity: 0.35; stroke-width: 0.8"/>
     </g>
     <g id="line2d_14">
      <g>
       <use xlink:href="#m69a9d0680d" x="371.165" y="313.037969" style="stroke: #000000; stroke-width: 0.8"/>
      </g>
     </g>
     <g id="text_7">
      <!-- 15.0 -->
      <g transform="translate(360.032188 327.636406) scale(0.1 -0.1)">
       <use xlink:href="#DejaVuSans-31"/>
       <use xlink:href="#DejaVuSans-35" transform="translate(63.623047 0)"/>
       <use xlink:href="#DejaVuSans-2e" transform="translate(127.246094 0)"/>
       <use xlink:href="#DejaVuSans-30" transform="translate(159.033203 0)"/>
      </g>
     </g>
    </g>
    <g id="xtick_8">
     <g id="line2d_15">
      <path d="M 424.875625 313.037969 
L 424.875625 23.077969 
" clip-path="url(#p1c5399136b)" style="fill: none; stroke-dasharray: 2.96,1.28; stroke-dashoffset: 0; stroke: #b0b0b0; stroke-opacity: 0.35; stroke-width: 0.8"/>
     </g>
     <g id="line2d_16">
      <g>
       <use xlink:href="#m69a9d0680d" x="424.875625" y="313.037969" style="stroke: #000000; stroke-width: 0.8"/>
      </g>
     </g>
     <g id="text_8">
      <!-- 17.5 -->
      <g transform="translate(413.742813 327.636406) scale(0.1 -0.1)">
       <use xlink:href="#DejaVuSans-31"/>
       <use xlink:href="#DejaVuSans-37" transform="translate(63.623047 0)"/>
       <use xlink:href="#DejaVuSans-2e" transform="translate(127.246094 0)"/>
       <use xlink:href="#DejaVuSans-35" transform="translate(159.033203 0)"/>
      </g>
     </g>
    </g>
    <g id="xtick_9">
     <g id="line2d_17">
      <path d="M 478.58625 313.037969 
L 478.58625 23.077969 
" clip-path="url(#p1c5399136b)" style="fill: none; stroke-dasharray: 2.96,1.28; stroke-dashoffset: 0; stroke: #b0b0b0; stroke-opacity: 0.35; stroke-width: 0.8"/>
     </g>
     <g id="line2d_18">
      <g>
       <use xlink:href="#m69a9d0680d" x="478.58625" y="313.037969" style="stroke: #000000; stroke-width: 0.8"/>
      </g>
     </g>
     <g id="text_9">
      <!-- 20.0 -->
      <g transform="translate(467.453438 327.636406) scale(0.1 -0.1)">
       <use xlink:href="#DejaVuSans-32"/>
       <use xlink:href="#DejaVuSans-30" transform="translate(63.623047 0)"/>
       <use xlink:href="#DejaVuSans-2e" transform="translate(127.246094 0)"/>
       <use xlink:href="#DejaVuSans-30" transform="translate(159.033203 0)"/>
      </g>
     </g>
    </g>
    <g id="text_10">
     <!-- Angular Error Threshold (°) -->
     <g transform="translate(182.824375 342.834219) scale(0.12 -0.12)">
      <defs>
       <path id="DejaVuSans-41" d="M 2188 4044 
L 1331 1722 
L 3047 1722 
L 2188 4044 
z
M 1831 4666 
L 2547 4666 
L 4325 0 
L 3669 0 
L 3244 1197 
L 1141 1197 
L 716 0 
L 50 0 
L 1831 4666 
z
" transform="scale(0.015625)"/>
       <path id="DejaVuSans-6e" d="M 3513 2113 
L 3513 0 
L 2938 0 
L 2938 2094 
Q 2938 2591 2744 2837 
Q 2550 3084 2163 3084 
Q 1697 3084 1428 2787 
Q 1159 2491 1159 1978 
L 1159 0 
L 581 0 
L 581 3500 
L 1159 3500 
L 1159 2956 
Q 1366 3272 1645 3428 
Q 1925 3584 2291 3584 
Q 2894 3584 3203 3211 
Q 3513 2838 3513 2113 
z
" transform="scale(0.015625)"/>
       <path id="DejaVuSans-67" d="M 2906 1791 
Q 2906 2416 2648 2759 
Q 2391 3103 1925 3103 
Q 1463 3103 1205 2759 
Q 947 2416 947 1791 
Q 947 1169 1205 825 
Q 1463 481 1925 481 
Q 2391 481 2648 825 
Q 2906 1169 2906 1791 
z
M 3481 434 
Q 3481 -459 3084 -895 
Q 2688 -1331 1869 -1331 
Q 1566 -1331 1297 -1286 
Q 1028 -1241 775 -1147 
L 775 -588 
Q 1028 -725 1275 -790 
Q 1522 -856 1778 -856 
Q 2344 -856 2625 -561 
Q 2906 -266 2906 331 
L 2906 616 
Q 2728 306 2450 153 
Q 2172 0 1784 0 
Q 1141 0 747 490 
Q 353 981 353 1791 
Q 353 2603 747 3093 
Q 1141 3584 1784 3584 
Q 2172 3584 2450 3431 
Q 2728 3278 2906 2969 
L 2906 3500 
L 3481 3500 
L 3481 434 
z
" transform="scale(0.015625)"/>
       <path id="DejaVuSans-75" d="M 544 1381 
L 544 3500 
L 1119 3500 
L 1119 1403 
Q 1119 906 1312 657 
Q 1506 409 1894 409 
Q 2359 409 2629 706 
Q 2900 1003 2900 1516 
L 2900 3500 
L 3475 3500 
L 3475 0 
L 2900 0 
L 2900 538 
Q 2691 219 2414 64 
Q 2138 -91 1772 -91 
Q 1169 -91 856 284 
Q 544 659 544 1381 
z
M 1991 3584 
L 1991 3584 
z
" transform="scale(0.015625)"/>
       <path id="DejaVuSans-6c" d="M 603 4863 
L 1178 4863 
L 1178 0 
L 603 0 
L 603 4863 
z
" transform="scale(0.015625)"/>
       <path id="DejaVuSans-61" d="M 2194 1759 
Q 1497 1759 1228 1600 
Q 959 1441 959 1056 
Q 959 750 1161 570 
Q 1363 391 1709 391 
Q 2188 391 2477 730 
Q 2766 1069 2766 1631 
L 2766 1759 
L 2194 1759 
z
M 3341 1997 
L 3341 0 
L 2766 0 
L 2766 531 
Q 2569 213 2275 61 
Q 1981 -91 1556 -91 
Q 1019 -91 701 211 
Q 384 513 384 1019 
Q 384 1609 779 1909 
Q 1175 2209 1959 2209 
L 2766 2209 
L 2766 2266 
Q 2766 2663 2505 2880 
Q 2244 3097 1772 3097 
Q 1472 3097 1187 3025 
Q 903 2953 641 2809 
L 641 3341 
Q 956 3463 1253 3523 
Q 1550 3584 1831 3584 
Q 2591 3584 2966 3190 
Q 3341 2797 3341 1997 
z
" transform="scale(0.015625)"/>
       <path id="DejaVuSans-72" d="M 2631 2963 
Q 2534 3019 2420 3045 
Q 2306 3072 2169 3072 
Q 1681 3072 1420 2755 
Q 1159 2438 1159 1844 
L 1159 0 
L 581 0 
L 581 3500 
L 1159 3500 
L 1159 2956 
Q 1341 3275 1631 3429 
Q 1922 3584 2338 3584 
Q 2397 3584 2469 3576 
Q 2541 3569 2628 3553 
L 2631 2963 
z
" transform="scale(0.015625)"/>
       <path id="DejaVuSans-20" transform="scale(0.015625)"/>
       <path id="DejaVuSans-45" d="M 628 4666 
L 3578 4666 
L 3578 4134 
L 1259 4134 
L 1259 2753 
L 3481 2753 
L 3481 2222 
L 1259 2222 
L 1259 531 
L 3634 531 
L 3634 0 
L 628 0 
L 628 4666 
z
" transform="scale(0.015625)"/>
       <path id="DejaVuSans-6f" d="M 1959 3097 
Q 1497 3097 1228 2736 
Q 959 2375 959 1747 
Q 959 1119 1226 758 
Q 1494 397 1959 397 
Q 2419 397 2687 759 
Q 2956 1122 2956 1747 
Q 2956 2369 2687 2733 
Q 2419 3097 1959 3097 
z
M 1959 3584 
Q 2709 3584 3137 3096 
Q 3566 2609 3566 1747 
Q 3566 888 3137 398 
Q 2709 -91 1959 -91 
Q 1206 -91 779 398 
Q 353 888 353 1747 
Q 353 2609 779 3096 
Q 1206 3584 1959 3584 
z
" transform="scale(0.015625)"/>
       <path id="DejaVuSans-54" d="M -19 4666 
L 3928 4666 
L 3928 4134 
L 2272 4134 
L 2272 0 
L 1638 0 
L 1638 4134 
L -19 4134 
L -19 4666 
z
" transform="scale(0.015625)"/>
       <path id="DejaVuSans-68" d="M 3513 2113 
L 3513 0 
L 2938 0 
L 2938 2094 
Q 2938 2591 2744 2837 
Q 2550 3084 2163 3084 
Q 1697 3084 1428 2787 
Q 1159 2491 1159 1978 
L 1159 0 
L 581 0 
L 581 4863 
L 1159 4863 
L 1159 2956 
Q 1366 3272 1645 3428 
Q 1925 3584 2291 3584 
Q 2894 3584 3203 3211 
Q 3513 2838 3513 2113 
z
" transform="scale(0.015625)"/>
       <path id="DejaVuSans-65" d="M 3597 1894 
L 3597 1613 
L 953 1613 
Q 991 1019 1311 708 
Q 1631 397 2203 397 
Q 2534 397 2845 478 
Q 3156 559 3463 722 
L 3463 178 
Q 3153 47 2828 -22 
Q 2503 -91 2169 -91 
Q 1331 -91 842 396 
Q 353 884 353 1716 
Q 353 2575 817 3079 
Q 1281 3584 2069 3584 
Q 2775 3584 3186 3129 
Q 3597 2675 3597 1894 
z
M 3022 2063 
Q 3016 2534 2758 2815 
Q 2500 3097 2075 3097 
Q 1594 3097 1305 2825 
Q 1016 2553 972 2059 
L 3022 2063 
z
" transform="scale(0.015625)"/>
       <path id="DejaVuSans-73" d="M 2834 3397 
L 2834 2853 
Q 2591 2978 2328 3040 
Q 2066 3103 1784 3103 
Q 1356 3103 1142 2972 
Q 928 2841 928 2578 
Q 928 2378 1081 2264 
Q 1234 2150 1697 2047 
L 1894 2003 
Q 2506 1872 2764 1633 
Q 3022 1394 3022 966 
Q 3022 478 2636 193 
Q 2250 -91 1575 -91 
Q 1294 -91 989 -36 
Q 684 19 347 128 
L 347 722 
Q 666 556 975 473 
Q 1284 391 1588 391 
Q 1994 391 2212 530 
Q 2431 669 2431 922 
Q 2431 1156 2273 1281 
Q 2116 1406 1581 1522 
L 1381 1569 
Q 847 1681 609 1914 
Q 372 2147 372 2553 
Q 372 3047 722 3315 
Q 1072 3584 1716 3584 
Q 2034 3584 2315 3537 
Q 2597 3491 2834 3397 
z
" transform="scale(0.015625)"/>
       <path id="DejaVuSans-64" d="M 2906 2969 
L 2906 4863 
L 3481 4863 
L 3481 0 
L 2906 0 
L 2906 525 
Q 2725 213 2448 61 
Q 2172 -91 1784 -91 
Q 1150 -91 751 415 
Q 353 922 353 1747 
Q 353 2572 751 3078 
Q 1150 3584 1784 3584 
Q 2172 3584 2448 3432 
Q 2725 3281 2906 2969 
z
M 947 1747 
Q 947 1113 1208 752 
Q 1469 391 1925 391 
Q 2381 391 2643 752 
Q 2906 1113 2906 1747 
Q 2906 2381 2643 2742 
Q 2381 3103 1925 3103 
Q 1469 3103 1208 2742 
Q 947 2381 947 1747 
z
" transform="scale(0.015625)"/>
       <path id="DejaVuSans-28" d="M 1984 4856 
Q 1566 4138 1362 3434 
Q 1159 2731 1159 2009 
Q 1159 1288 1364 580 
Q 1569 -128 1984 -844 
L 1484 -844 
Q 1016 -109 783 600 
Q 550 1309 550 2009 
Q 550 2706 781 3412 
Q 1013 4119 1484 4856 
L 1984 4856 
z
" transform="scale(0.015625)"/>
       <path id="DejaVuSans-b0" d="M 1600 4347 
Q 1350 4347 1178 4173 
Q 1006 4000 1006 3750 
Q 1006 3503 1178 3333 
Q 1350 3163 1600 3163 
Q 1850 3163 2022 3333 
Q 2194 3503 2194 3750 
Q 2194 3997 2020 4172 
Q 1847 4347 1600 4347 
z
M 1600 4750 
Q 1800 4750 1984 4673 
Q 2169 4597 2303 4453 
Q 2447 4313 2519 4134 
Q 2591 3956 2591 3750 
Q 2591 3338 2302 3052 
Q 2013 2766 1594 2766 
Q 1172 2766 890 3047 
Q 609 3328 609 3750 
Q 609 4169 896 4459 
Q 1184 4750 1600 4750 
z
" transform="scale(0.015625)"/>
       <path id="DejaVuSans-29" d="M 513 4856 
L 1013 4856 
Q 1481 4119 1714 3412 
Q 1947 2706 1947 2009 
Q 1947 1309 1714 600 
Q 1481 -109 1013 -844 
L 513 -844 
Q 928 -128 1133 580 
Q 1338 1288 1338 2009 
Q 1338 2731 1133 3434 
Q 928 4138 513 4856 
z
" transform="scale(0.015625)"/>
      </defs>
      <use xlink:href="#DejaVuSans-41"/>
      <use xlink:href="#DejaVuSans-6e" transform="translate(68.408203 0)"/>
      <use xlink:href="#DejaVuSans-67" transform="translate(131.787109 0)"/>
      <use xlink:href="#DejaVuSans-75" transform="translate(195.263672 0)"/>
      <use xlink:href="#DejaVuSans-6c" transform="translate(258.642578 0)"/>
      <use xlink:href="#DejaVuSans-61" transform="translate(286.425781 0)"/>
      <use xlink:href="#DejaVuSans-72" transform="translate(347.705078 0)"/>
      <use xlink:href="#DejaVuSans-20" transform="translate(388.818359 0)"/>
      <use xlink:href="#DejaVuSans-45" transform="translate(420.605469 0)"/>
      <use xlink:href="#DejaVuSans-72" transform="translate(483.789062 0)"/>
      <use xlink:href="#DejaVuSans-72" transform="translate(523.152344 0)"/>
      <use xlink:href="#DejaVuSans-6f" transform="translate(562.015625 0)"/>
      <use xlink:href="#DejaVuSans-72" transform="translate(623.197266 0)"/>
      <use xlink:href="#DejaVuSans-20" transform="translate(664.310547 0)"/>
      <use xlink:href="#DejaVuSans-54" transform="translate(696.097656 0)"/>
      <use xlink:href="#DejaVuSans-68" transform="translate(757.181641 0)"/>
      <use xlink:href="#DejaVuSans-72" transform="translate(820.560547 0)"/>
      <use xlink:href="#DejaVuSans-65" transform="translate(859.423828 0)"/>
      <use xlink:href="#DejaVuSans-73" transform="translate(920.947266 0)"/>
      <use xlink:href="#DejaVuSans-68" transform="translate(973.046875 0)"/>
      <use xlink:href="#DejaVuSans-6f" transform="translate(1036.425781 0)"/>
      <use xlink:href="#DejaVuSans-6c" transform="translate(1097.607422 0)"/>
      <use xlink:href="#DejaVuSans-64" transform="translate(1125.390625 0)"/>
      <use xlink:href="#DejaVuSans-20" transform="translate(1188.867188 0)"/>
      <use xlink:href="#DejaVuSans-28" transform="translate(1220.654297 0)"/>
      <use xlink:href="#DejaVuSans-b0" transform="translate(1259.667969 0)"/>
      <use xlink:href="#DejaVuSans-29" transform="translate(1309.667969 0)"/>
     </g>
    </g>
   </g>
   <g id="matplotlib.axis_2">
    <g id="ytick_1">
     <g id="line2d_19">
      <path d="M 48.90125 313.037969 
L 478.58625 313.037969 
" clip-path="url(#p1c5399136b)" style="fill: none; stroke-dasharray: 2.96,1.28; stroke-dashoffset: 0; stroke: #b0b0b0; stroke-opacity: 0.35; stroke-width: 0.8"/>
     </g>
     <g id="line2d_20">
      <defs>
       <path id="m6d9e0af9d9" d="M 0 0 
L -3.5 0 
" style="stroke: #000000; stroke-width: 0.8"/>
      </defs>
      <g>
       <use xlink:href="#m6d9e0af9d9" x="48.90125" y="313.037969" style="stroke: #000000; stroke-width: 0.8"/>
      </g>
     </g>
     <g id="text_11">
      <!-- 0 -->
      <g transform="translate(35.53875 316.837187) scale(0.1 -0.1)">
       <use xlink:href="#DejaVuSans-30"/>
      </g>
     </g>
    </g>
    <g id="ytick_2">
     <g id="line2d_21">
      <path d="M 48.90125 255.045969 
L 478.58625 255.045969 
" clip-path="url(#p1c5399136b)" style="fill: none; stroke-dasharray: 2.96,1.28; stroke-dashoffset: 0; stroke: #b0b0b0; stroke-opacity: 0.35; stroke-width: 0.8"/>
     </g>
     <g id="line2d_22">
      <g>
       <use xlink:href="#m6d9e0af9d9" x="48.90125" y="255.045969" style="stroke: #000000; stroke-width: 0.8"/>
      </g>
     </g>
     <g id="text_12">
      <!-- 20 -->
      <g transform="translate(29.17625 258.845187) scale(0.1 -0.1)">
       <use xlink:href="#DejaVuSans-32"/>
       <use xlink:href="#DejaVuSans-30" transform="translate(63.623047 0)"/>
      </g>
     </g>
    </g>
    <g id="ytick_3">
     <g id="line2d_23">
      <path d="M 48.90125 197.053969 
L 478.58625 197.053969 
" clip-path="url(#p1c5399136b)" style="fill: none; stroke-dasharray: 2.96,1.28; stroke-dashoffset: 0; stroke: #b0b0b0; stroke-opacity: 0.35; stroke-width: 0.8"/>
     </g>
     <g id="line2d_24">
      <g>
       <use xlink:href="#m6d9e0af9d9" x="48.90125" y="197.053969" style="stroke: #000000; stroke-width: 0.8"/>
      </g>
     </g>
     <g id="text_13">
      <!-- 40 -->
      <g transform="translate(29.17625 200.853187) scale(0.1 -0.1)">
       <defs>
        <path id="DejaVuSans-34" d="M 2419 4116 
L 825 1625 
L 2419 1625 
L 2419 4116 
z
M 2253 4666 
L 3047 4666 
L 3047 1625 
L 3713 1625 
L 3713 1100 
L 3047 1100 
L 3047 0 
L 2419 0 
L 2419 1100 
L 313 1100 
L 313 1709 
L 2253 4666 
z
" transform="scale(0.015625)"/>
       </defs>
       <use xlink:href="#DejaVuSans-34"/>
       <use xlink:href="#DejaVuSans-30" transform="translate(63.623047 0)"/>
      </g>
     </g>
    </g>
    <g id="ytick_4">
     <g id="line2d_25">
      <path d="M 48.90125 139.061969 
L 478.58625 139.061969 
" clip-path="url(#p1c5399136b)" style="fill: none; stroke-dasharray: 2.96,1.28; stroke-dashoffset: 0; stroke: #b0b0b0; stroke-opacity: 0.35; stroke-width: 0.8"/>
     </g>
     <g id="line2d_26">
      <g>
       <use xlink:href="#m6d9e0af9d9" x="48.90125" y="139.061969" style="stroke: #000000; stroke-width: 0.8"/>
      </g>
     </g>
     <g id="text_14">
      <!-- 60 -->
      <g transform="translate(29.17625 142.861187) scale(0.1 -0.1)">
       <defs>
        <path id="DejaVuSans-36" d="M 2113 2584 
Q 1688 2584 1439 2293 
Q 1191 2003 1191 1497 
Q 1191 994 1439 701 
Q 1688 409 2113 409 
Q 2538 409 2786 701 
Q 3034 994 3034 1497 
Q 3034 2003 2786 2293 
Q 2538 2584 2113 2584 
z
M 3366 4563 
L 3366 3988 
Q 3128 4100 2886 4159 
Q 2644 4219 2406 4219 
Q 1781 4219 1451 3797 
Q 1122 3375 1075 2522 
Q 1259 2794 1537 2939 
Q 1816 3084 2150 3084 
Q 2853 3084 3261 2657 
Q 3669 2231 3669 1497 
Q 3669 778 3244 343 
Q 2819 -91 2113 -91 
Q 1303 -91 875 529 
Q 447 1150 447 2328 
Q 447 3434 972 4092 
Q 1497 4750 2381 4750 
Q 2619 4750 2861 4703 
Q 3103 4656 3366 4563 
z
" transform="scale(0.015625)"/>
       </defs>
       <use xlink:href="#DejaVuSans-36"/>
       <use xlink:href="#DejaVuSans-30" transform="translate(63.623047 0)"/>
      </g>
     </g>
    </g>
    <g id="ytick_5">
     <g id="line2d_27">
      <path d="M 48.90125 81.069969 
L 478.58625 81.069969 
" clip-path="url(#p1c5399136b)" style="fill: none; stroke-dasharray: 2.96,1.28; stroke-dashoffset: 0; stroke: #b0b0b0; stroke-opacity: 0.35; stroke-width: 0.8"/>
     </g>
     <g id="line2d_28">
      <g>
       <use xlink:href="#m6d9e0af9d9" x="48.90125" y="81.069969" style="stroke: #000000; stroke-width: 0.8"/>
      </g>
     </g>
     <g id="text_15">
      <!-- 80 -->
      <g transform="translate(29.17625 84.869187) scale(0.1 -0.1)">
       <defs>
        <path id="DejaVuSans-38" d="M 2034 2216 
Q 1584 2216 1326 1975 
Q 1069 1734 1069 1313 
Q 1069 891 1326 650 
Q 1584 409 2034 409 
Q 2484 409 2743 651 
Q 3003 894 3003 1313 
Q 3003 1734 2745 1975 
Q 2488 2216 2034 2216 
z
M 1403 2484 
Q 997 2584 770 2862 
Q 544 3141 544 3541 
Q 544 4100 942 4425 
Q 1341 4750 2034 4750 
Q 2731 4750 3128 4425 
Q 3525 4100 3525 3541 
Q 3525 3141 3298 2862 
Q 3072 2584 2669 2484 
Q 3125 2378 3379 2068 
Q 3634 1759 3634 1313 
Q 3634 634 3220 271 
Q 2806 -91 2034 -91 
Q 1263 -91 848 271 
Q 434 634 434 1313 
Q 434 1759 690 2068 
Q 947 2378 1403 2484 
z
M 1172 3481 
Q 1172 3119 1398 2916 
Q 1625 2713 2034 2713 
Q 2441 2713 2670 2916 
Q 2900 3119 2900 3481 
Q 2900 3844 2670 4047 
Q 2441 4250 2034 4250 
Q 1625 4250 1398 4047 
Q 1172 3844 1172 3481 
z
" transform="scale(0.015625)"/>
       </defs>
       <use xlink:href="#DejaVuSans-38"/>
       <use xlink:href="#DejaVuSans-30" transform="translate(63.623047 0)"/>
      </g>
     </g>
    </g>
    <g id="ytick_6">
     <g id="line2d_29">
      <path d="M 48.90125 23.077969 
L 478.58625 23.077969 
" clip-path="url(#p1c5399136b)" style="fill: none; stroke-dasharray: 2.96,1.28; stroke-dashoffset: 0; stroke: #b0b0b0; stroke-opacity: 0.35; stroke-width: 0.8"/>
     </g>
     <g id="line2d_30">
      <g>
       <use xlink:href="#m6d9e0af9d9" x="48.90125" y="23.077969" style="stroke: #000000; stroke-width: 0.8"/>
      </g>
     </g>
     <g id="text_16">
      <!-- 100 -->
      <g transform="translate(22.81375 26.877187) scale(0.1 -0.1)">
       <use xlink:href="#DejaVuSans-31"/>
       <use xlink:href="#DejaVuSans-30" transform="translate(63.623047 0)"/>
       <use xlink:href="#DejaVuSans-30" transform="translate(127.246094 0)"/>
      </g>
     </g>
    </g>
    <g id="text_17">
     <!-- Predictions with Error ≤ Threshold (%) -->
     <g transform="translate(16.318125 282.849219) rotate(-90) scale(0.12 -0.12)">
      <defs>
       <path id="DejaVuSans-50" d="M 1259 4147 
L 1259 2394 
L 2053 2394 
Q 2494 2394 2734 2622 
Q 2975 2850 2975 3272 
Q 2975 3691 2734 3919 
Q 2494 4147 2053 4147 
L 1259 4147 
z
M 628 4666 
L 2053 4666 
Q 2838 4666 3239 4311 
Q 3641 3956 3641 3272 
Q 3641 2581 3239 2228 
Q 2838 1875 2053 1875 
L 1259 1875 
L 1259 0 
L 628 0 
L 628 4666 
z
" transform="scale(0.015625)"/>
       <path id="DejaVuSans-69" d="M 603 3500 
L 1178 3500 
L 1178 0 
L 603 0 
L 603 3500 
z
M 603 4863 
L 1178 4863 
L 1178 4134 
L 603 4134 
L 603 4863 
z
" transform="scale(0.015625)"/>
       <path id="DejaVuSans-63" d="M 3122 3366 
L 3122 2828 
Q 2878 2963 2633 3030 
Q 2388 3097 2138 3097 
Q 1578 3097 1268 2742 
Q 959 2388 959 1747 
Q 959 1106 1268 751 
Q 1578 397 2138 397 
Q 2388 397 2633 464 
Q 2878 531 3122 666 
L 3122 134 
Q 2881 22 2623 -34 
Q 2366 -91 2075 -91 
Q 1284 -91 818 406 
Q 353 903 353 1747 
Q 353 2603 823 3093 
Q 1294 3584 2113 3584 
Q 2378 3584 2631 3529 
Q 2884 3475 3122 3366 
z
" transform="scale(0.015625)"/>
       <path id="DejaVuSans-74" d="M 1172 4494 
L 1172 3500 
L 2356 3500 
L 2356 3053 
L 1172 3053 
L 1172 1153 
Q 1172 725 1289 603 
Q 1406 481 1766 481 
L 2356 481 
L 2356 0 
L 1766 0 
Q 1100 0 847 248 
Q 594 497 594 1153 
L 594 3053 
L 172 3053 
L 172 3500 
L 594 3500 
L 594 4494 
L 1172 4494 
z
" transform="scale(0.015625)"/>
       <path id="DejaVuSans-77" d="M 269 3500 
L 844 3500 
L 1563 769 
L 2278 3500 
L 2956 3500 
L 3675 769 
L 4391 3500 
L 4966 3500 
L 4050 0 
L 3372 0 
L 2619 2869 
L 1863 0 
L 1184 0 
L 269 3500 
z
" transform="scale(0.015625)"/>
       <path id="DejaVuSans-2264" d="M 4684 3175 
L 1684 2309 
L 4684 1453 
L 4684 897 
L 678 2047 
L 678 2578 
L 4684 3725 
L 4684 3175 
z
M 678 531 
L 4684 531 
L 4684 0 
L 678 0 
L 678 531 
z
" transform="scale(0.015625)"/>
       <path id="DejaVuSans-25" d="M 4653 2053 
Q 4381 2053 4226 1822 
Q 4072 1591 4072 1178 
Q 4072 772 4226 539 
Q 4381 306 4653 306 
Q 4919 306 5073 539 
Q 5228 772 5228 1178 
Q 5228 1588 5073 1820 
Q 4919 2053 4653 2053 
z
M 4653 2450 
Q 5147 2450 5437 2106 
Q 5728 1763 5728 1178 
Q 5728 594 5436 251 
Q 5144 -91 4653 -91 
Q 4153 -91 3862 251 
Q 3572 594 3572 1178 
Q 3572 1766 3864 2108 
Q 4156 2450 4653 2450 
z
M 1428 4353 
Q 1159 4353 1004 4120 
Q 850 3888 850 3481 
Q 850 3069 1003 2837 
Q 1156 2606 1428 2606 
Q 1700 2606 1854 2837 
Q 2009 3069 2009 3481 
Q 2009 3884 1853 4118 
Q 1697 4353 1428 4353 
z
M 4250 4750 
L 4750 4750 
L 1831 -91 
L 1331 -91 
L 4250 4750 
z
M 1428 4750 
Q 1922 4750 2215 4408 
Q 2509 4066 2509 3481 
Q 2509 2891 2217 2550 
Q 1925 2209 1428 2209 
Q 931 2209 642 2551 
Q 353 2894 353 3481 
Q 353 4063 643 4406 
Q 934 4750 1428 4750 
z
" transform="scale(0.015625)"/>
      </defs>
      <use xlink:href="#DejaVuSans-50"/>
      <use xlink:href="#DejaVuSans-72" transform="translate(58.552734 0)"/>
      <use xlink:href="#DejaVuSans-65" transform="translate(97.416016 0)"/>
      <use xlink:href="#DejaVuSans-64" transform="translate(158.939453 0)"/>
      <use xlink:href="#DejaVuSans-69" transform="translate(222.416016 0)"/>
      <use xlink:href="#DejaVuSans-63" transform="translate(250.199219 0)"/>
      <use xlink:href="#DejaVuSans-74" transform="translate(305.179688 0)"/>
      <use xlink:href="#DejaVuSans-69" transform="translate(344.388672 0)"/>
      <use xlink:href="#DejaVuSans-6f" transform="translate(372.171875 0)"/>
      <use xlink:href="#DejaVuSans-6e" transform="translate(433.353516 0)"/>
      <use xlink:href="#DejaVuSans-73" transform="translate(496.732422 0)"/>
      <use xlink:href="#DejaVuSans-20" transform="translate(548.832031 0)"/>
      <use xlink:href="#DejaVuSans-77" transform="translate(580.619141 0)"/>
      <use xlink:href="#DejaVuSans-69" transform="translate(662.40625 0)"/>
      <use xlink:href="#DejaVuSans-74" transform="translate(690.189453 0)"/>
      <use xlink:href="#DejaVuSans-68" transform="translate(729.398438 0)"/>
      <use xlink:href="#DejaVuSans-20" transform="translate(792.777344 0)"/>
      <use xlink:href="#DejaVuSans-45" transform="translate(824.564453 0)"/>
      <use xlink:href="#DejaVuSans-72" transform="translate(887.748047 0)"/>
      <use xlink:href="#DejaVuSans-72" transform="translate(927.111328 0)"/>
      <use xlink:href="#DejaVuSans-6f" transform="translate(965.974609 0)"/>
      <use xlink:href="#DejaVuSans-72" transform="translate(1027.15625 0)"/>
      <use xlink:href="#DejaVuSans-20" transform="translate(1068.269531 0)"/>
      <use xlink:href="#DejaVuSans-2264" transform="translate(1100.056641 0)"/>
      <use xlink:href="#DejaVuSans-20" transform="translate(1183.845703 0)"/>
      <use xlink:href="#DejaVuSans-54" transform="translate(1215.632812 0)"/>
      <use xlink:href="#DejaVuSans-68" transform="translate(1276.716797 0)"/>
      <use xlink:href="#DejaVuSans-72" transform="translate(1340.095703 0)"/>
      <use xlink:href="#DejaVuSans-65" transform="translate(1378.958984 0)"/>
      <use xlink:href="#DejaVuSans-73" transform="translate(1440.482422 0)"/>
      <use xlink:href="#DejaVuSans-68" transform="translate(1492.582031 0)"/>
      <use xlink:href="#DejaVuSans-6f" transform="translate(1555.960938 0)"/>
      <use xlink:href="#DejaVuSans-6c" transform="translate(1617.142578 0)"/>
      <use xlink:href="#DejaVuSans-64" transform="translate(1644.925781 0)"/>
      <use xlink:href="#DejaVuSans-20" transform="translate(1708.402344 0)"/>
      <use xlink:href="#DejaVuSans-28" transform="translate(1740.189453 0)"/>
      <use xlink:href="#DejaVuSans-25" transform="translate(1779.203125 0)"/>
      <use xlink:href="#DejaVuSans-29" transform="translate(1874.222656 0)"/>
     </g>
    </g>
   </g>
   <g id="line2d_31">
    <path d="M 48.90125 313.037969 
L 51.05506 222.860409 
L 52.131964 177.046729 
L 53.208869 143.701329 
L 54.285774 121.084449 
L 55.362679 111.805729 
L 56.439583 100.787249 
L 57.516488 94.408129 
L 58.593393 90.058729 
L 61.824107 80.780009 
L 62.901012 78.460329 
L 63.977917 75.850689 
L 65.054821 74.980809 
L 66.131726 72.661129 
L 67.208631 71.211329 
L 68.285536 70.341449 
L 69.36244 68.891649 
L 70.439345 67.731809 
L 71.51625 66.282009 
L 72.593155 65.702089 
L 74.746964 63.382409 
L 75.823869 62.802489 
L 76.900774 61.932609 
L 79.054583 59.612929 
L 81.208393 57.873169 
L 82.285298 57.583209 
L 83.362202 57.003289 
L 84.439107 56.133409 
L 85.516012 54.973569 
L 86.592917 54.103689 
L 90.900536 52.943849 
L 91.97744 52.943849 
L 93.054345 52.653889 
L 94.13125 52.073969 
L 96.28506 51.494049 
L 97.361964 51.494049 
L 98.438869 51.204089 
L 99.515774 50.624169 
L 101.669583 50.044249 
L 102.746488 50.044249 
L 104.900298 49.464329 
L 105.977202 48.884409 
L 107.054107 48.594449 
L 110.284821 46.854689 
L 111.361726 45.984809 
L 112.438631 45.984809 
L 113.515536 45.694849 
L 114.59244 44.535009 
L 115.669345 43.955089 
L 116.74625 43.955089 
L 117.823155 43.375169 
L 118.90006 42.505289 
L 119.976964 42.215329 
L 121.053869 42.215329 
L 123.207679 41.635409 
L 127.515298 41.635409 
L 128.592202 41.345449 
L 129.669107 41.345449 
L 130.746012 41.055489 
L 131.822917 41.055489 
L 133.976726 40.475569 
L 135.053631 39.895649 
L 136.130536 39.605689 
L 138.284345 39.605689 
L 139.36125 39.315729 
L 140.438155 39.315729 
L 141.51506 39.025769 
L 144.745774 39.025769 
L 145.822679 38.735809 
L 146.899583 38.735809 
L 147.976488 38.445849 
L 149.053393 37.575969 
L 151.207202 36.996049 
L 152.284107 36.416129 
L 153.361012 36.416129 
L 154.437917 36.126169 
L 156.591726 36.126169 
L 157.668631 35.546249 
L 158.745536 35.256289 
L 159.82244 34.386409 
L 160.899345 34.096449 
L 163.053155 34.096449 
L 164.13006 33.806489 
L 167.360774 33.806489 
L 169.514583 33.226569 
L 180.283631 33.226569 
L 181.360536 32.936609 
L 187.821964 32.936609 
L 188.898869 32.646649 
L 194.283393 32.646649 
L 195.360298 32.356689 
L 196.437202 32.356689 
L 197.514107 32.066729 
L 201.821726 32.066729 
L 202.898631 31.776769 
L 215.821488 31.776769 
L 216.898393 31.486809 
L 227.66744 31.486809 
L 228.744345 31.196849 
L 230.898155 31.196849 
L 231.97506 30.906889 
L 245.974821 30.906889 
L 247.051726 30.616929 
L 263.205298 30.616929 
L 264.282202 30.037009 
L 270.743631 30.037009 
L 271.820536 29.747049 
L 284.743393 29.747049 
L 285.820298 29.457089 
L 299.82006 29.457089 
L 300.896964 29.167129 
L 306.281488 29.167129 
L 307.358393 28.877169 
L 310.589107 28.877169 
L 311.666012 28.587209 
L 334.281012 28.587209 
L 335.357917 28.297249 
L 345.05006 28.297249 
L 346.126964 28.007289 
L 350.434583 28.007289 
L 351.511488 27.717329 
L 433.35625 27.717329 
L 434.433155 27.427369 
L 466.740298 27.427369 
L 467.817202 27.137409 
L 478.58625 27.137409 
L 478.58625 27.137409 
" clip-path="url(#p1c5399136b)" style="fill: none; stroke: #1f77b4; stroke-width: 2.5; stroke-linecap: square"/>
   </g>
   <g id="line2d_32">
    <path d="M 48.90125 313.037969 
L 52.131964 272.733529 
L 55.362679 234.458809 
L 57.516488 208.652369 
L 59.670298 186.615409 
L 61.824107 168.927849 
L 62.901012 159.069209 
L 63.977917 150.370409 
L 68.285536 123.114169 
L 71.51625 112.095689 
L 72.593155 106.876409 
L 73.67006 102.816969 
L 74.746964 99.627409 
L 75.823869 95.278009 
L 76.900774 91.798489 
L 77.977679 87.739049 
L 79.054583 82.519769 
L 80.131488 78.750289 
L 82.285298 72.951089 
L 83.362202 68.891649 
L 84.439107 66.861929 
L 85.516012 64.252289 
L 88.746726 60.772769 
L 89.823631 59.902889 
L 90.900536 57.293249 
L 91.97744 56.133409 
L 93.054345 54.393649 
L 94.13125 52.943849 
L 95.208155 52.073969 
L 96.28506 50.914129 
L 97.361964 49.174369 
L 98.438869 48.884409 
L 99.515774 47.724569 
L 100.592679 47.724569 
L 101.669583 46.854689 
L 102.746488 45.694849 
L 103.823393 44.824969 
L 107.054107 43.085209 
L 109.207917 42.505289 
L 111.361726 40.765529 
L 112.438631 40.185609 
L 113.515536 40.185609 
L 114.59244 39.895649 
L 115.669345 39.315729 
L 116.74625 37.865929 
L 117.823155 37.865929 
L 119.976964 36.706089 
L 125.361488 36.706089 
L 126.438393 36.126169 
L 127.515298 35.836209 
L 128.592202 35.836209 
L 129.669107 35.256289 
L 130.746012 34.966329 
L 131.822917 34.966329 
L 137.20744 33.516529 
L 138.284345 33.516529 
L 139.36125 32.936609 
L 142.591964 32.936609 
L 143.668869 32.646649 
L 144.745774 31.776769 
L 149.053393 31.776769 
L 150.130298 31.486809 
L 151.207202 31.486809 
L 156.591726 30.037009 
L 159.82244 30.037009 
L 160.899345 29.747049 
L 161.97625 29.167129 
L 169.514583 29.167129 
L 170.591488 28.587209 
L 173.822202 28.587209 
L 174.899107 28.297249 
L 184.59125 28.297249 
L 185.668155 28.007289 
L 187.821964 28.007289 
L 188.898869 27.717329 
L 194.283393 27.717329 
L 195.360298 27.137409 
L 199.667917 27.137409 
L 200.744821 26.847449 
L 229.82125 26.847449 
L 230.898155 26.557489 
L 231.97506 26.557489 
L 233.051964 26.267529 
L 239.513393 26.267529 
L 240.590298 25.977569 
L 253.513155 25.977569 
L 254.59006 25.397649 
L 270.743631 25.397649 
L 271.820536 25.107689 
L 277.20506 25.107689 
L 278.281964 24.817729 
L 287.974107 24.817729 
L 289.051012 24.527769 
L 370.895774 24.527769 
L 371.972679 24.237809 
L 376.280298 24.237809 
L 377.357202 23.947849 
L 384.895536 23.947849 
L 385.97244 23.657889 
L 478.58625 23.657889 
L 478.58625 23.657889 
" clip-path="url(#p1c5399136b)" style="fill: none; stroke: #ff7f0e; stroke-width: 2.5; stroke-linecap: square"/>
   </g>
   <g id="line2d_33">
    <path d="M 48.90125 313.037969 
L 49.978155 309.848409 
L 51.05506 302.599409 
L 53.208869 286.071689 
L 54.285774 283.172089 
L 56.439583 275.343169 
L 57.516488 270.703809 
L 60.747202 254.756009 
L 61.824107 250.696569 
L 63.977917 243.447569 
L 65.054821 241.417849 
L 66.131726 236.488529 
L 67.208631 232.139129 
L 68.285536 229.529489 
L 69.36244 226.049969 
L 71.51625 220.250769 
L 72.593155 217.931089 
L 73.67006 216.481289 
L 74.746964 214.161609 
L 75.823869 210.682089 
L 76.900774 208.942329 
L 77.977679 206.332689 
L 79.054583 206.042729 
L 80.131488 203.143129 
L 81.208393 201.983289 
L 82.285298 201.113409 
L 83.362202 199.663609 
L 84.439107 197.053969 
L 85.516012 196.184089 
L 86.592917 195.894129 
L 87.669821 194.154369 
L 88.746726 192.994529 
L 90.900536 188.935089 
L 91.97744 187.485289 
L 93.054345 185.745529 
L 94.13125 183.715809 
L 95.208155 182.555969 
L 96.28506 180.526249 
L 97.361964 179.946329 
L 98.438869 179.076449 
L 100.592679 177.916609 
L 101.669583 175.596929 
L 104.900298 172.987289 
L 107.054107 172.987289 
L 108.131012 171.537489 
L 110.284821 170.377649 
L 111.361726 170.087689 
L 112.438631 169.507769 
L 113.515536 167.768009 
L 114.59244 166.608169 
L 116.74625 166.028249 
L 117.823155 165.158369 
L 118.90006 164.868409 
L 119.976964 164.288489 
L 121.053869 163.998529 
L 122.130774 163.128649 
L 123.207679 162.838689 
L 124.284583 162.258769 
L 125.361488 161.098929 
L 126.438393 160.519009 
L 127.515298 160.229049 
L 128.592202 158.779249 
L 129.669107 157.909369 
L 130.746012 157.619409 
L 131.822917 156.749529 
L 132.899821 155.589689 
L 133.976726 155.589689 
L 135.053631 155.299729 
L 136.130536 154.429849 
L 138.284345 153.270009 
L 139.36125 152.980049 
L 140.438155 152.110169 
L 141.51506 150.950329 
L 143.668869 150.950329 
L 144.745774 150.660369 
L 145.822679 149.500529 
L 146.899583 149.210569 
L 153.361012 149.210569 
L 155.514821 148.050729 
L 156.591726 146.021009 
L 157.668631 145.441089 
L 159.82244 144.861169 
L 160.899345 143.121409 
L 163.053155 142.541489 
L 164.13006 141.091689 
L 166.283869 141.091689 
L 167.360774 140.221809 
L 169.514583 140.221809 
L 170.591488 139.641889 
L 171.668393 139.641889 
L 175.976012 138.482049 
L 179.206726 138.482049 
L 181.360536 137.902129 
L 182.43744 137.902129 
L 183.514345 137.612169 
L 184.59125 137.612169 
L 186.74506 137.032249 
L 187.821964 137.032249 
L 188.898869 136.452329 
L 189.975774 135.582449 
L 191.052679 135.292489 
L 192.129583 135.292489 
L 193.206488 135.002529 
L 194.283393 135.002529 
L 196.437202 134.422609 
L 197.514107 133.552729 
L 199.667917 132.972809 
L 200.744821 132.392889 
L 201.821726 132.392889 
L 203.975536 131.812969 
L 205.05244 131.812969 
L 206.129345 131.233049 
L 207.20625 130.943089 
L 208.283155 130.943089 
L 209.36006 130.653129 
L 210.436964 130.653129 
L 213.667679 129.783249 
L 214.744583 129.203329 
L 215.821488 128.913369 
L 216.898393 128.913369 
L 217.975298 128.623409 
L 219.052202 128.623409 
L 220.129107 128.333449 
L 222.282917 128.333449 
L 223.359821 128.043489 
L 225.513631 128.043489 
L 226.590536 127.463569 
L 227.66744 127.463569 
L 228.744345 126.883649 
L 235.205774 126.883649 
L 236.282679 126.593689 
L 237.359583 126.593689 
L 240.590298 125.723809 
L 241.667202 125.143889 
L 242.744107 124.853929 
L 244.897917 123.694089 
L 249.205536 122.534249 
L 251.359345 122.534249 
L 252.43625 121.954329 
L 254.59006 121.954329 
L 255.666964 121.084449 
L 261.051488 121.084449 
L 263.205298 120.504529 
L 264.282202 120.504529 
L 265.359107 119.924609 
L 267.512917 119.924609 
L 269.666726 119.344689 
L 271.820536 119.344689 
L 272.89744 119.054729 
L 273.974345 119.054729 
L 275.05125 118.474809 
L 277.20506 118.474809 
L 278.281964 118.184849 
L 279.358869 117.604929 
L 284.743393 117.604929 
L 287.974107 116.735049 
L 291.204821 116.735049 
L 292.281726 116.445089 
L 293.358631 116.445089 
L 294.435536 116.155129 
L 296.589345 116.155129 
L 297.66625 115.865169 
L 298.743155 115.865169 
L 300.896964 115.285249 
L 301.973869 115.285249 
L 303.050774 114.705329 
L 304.127679 114.415369 
L 306.281488 114.415369 
L 307.358393 113.835449 
L 308.435298 113.545489 
L 309.512202 113.545489 
L 311.666012 112.965569 
L 313.819821 112.965569 
L 314.896726 112.675609 
L 319.204345 112.675609 
L 320.28125 112.385649 
L 324.588869 112.385649 
L 326.742679 111.225809 
L 327.819583 111.225809 
L 328.896488 110.645889 
L 331.050298 110.645889 
L 333.204107 110.065969 
L 334.281012 110.065969 
L 335.357917 109.776009 
L 336.434821 109.776009 
L 337.511726 108.906129 
L 338.588631 108.906129 
L 339.665536 108.616169 
L 341.819345 108.616169 
L 346.126964 107.456329 
L 347.203869 107.456329 
L 348.280774 107.166369 
L 349.357679 107.166369 
L 350.434583 106.876409 
L 359.049821 106.876409 
L 360.126726 106.296489 
L 361.203631 106.296489 
L 363.35744 105.716569 
L 366.588155 105.716569 
L 367.66506 105.426609 
L 370.895774 105.426609 
L 371.972679 104.846689 
L 373.049583 104.846689 
L 374.126488 104.556729 
L 375.203393 103.976809 
L 377.357202 103.396889 
L 378.434107 102.527009 
L 381.664821 102.527009 
L 382.741726 102.237049 
L 384.895536 102.237049 
L 385.97244 101.947089 
L 387.049345 101.947089 
L 389.203155 101.367169 
L 391.356964 101.367169 
L 392.433869 101.077209 
L 394.587679 101.077209 
L 395.664583 100.787249 
L 398.895298 100.787249 
L 399.972202 100.207329 
L 407.510536 100.207329 
L 408.58744 99.917369 
L 410.74125 99.917369 
L 411.818155 99.627409 
L 412.89506 99.627409 
L 413.971964 99.337449 
L 420.433393 99.337449 
L 421.510298 99.047489 
L 422.587202 99.047489 
L 424.741012 98.467569 
L 427.971726 98.467569 
L 429.048631 98.177609 
L 434.433155 98.177609 
L 435.51006 97.887649 
L 439.817679 97.887649 
L 440.894583 97.597689 
L 443.048393 97.597689 
L 444.125298 97.307729 
L 448.432917 97.307729 
L 449.509821 97.017769 
L 451.663631 97.017769 
L 452.740536 96.727809 
L 460.278869 96.727809 
L 461.355774 96.147889 
L 462.432679 95.857929 
L 463.509583 95.857929 
L 464.586488 95.567969 
L 465.663393 94.988049 
L 469.971012 94.988049 
L 471.047917 94.698089 
L 472.124821 94.698089 
L 473.201726 94.408129 
L 475.355536 94.408129 
L 476.43244 94.118169 
L 478.58625 94.118169 
L 478.58625 94.118169 
" clip-path="url(#p1c5399136b)" style="fill: none; stroke: #2ca02c; stroke-width: 2.5; stroke-linecap: square"/>
   </g>
   <g id="patch_3">
    <path d="M 48.90125 313.037969 
L 48.90125 23.077969 
" style="fill: none; stroke: #000000; stroke-width: 0.8; stroke-linejoin: miter; stroke-linecap: square"/>
   </g>
   <g id="patch_4">
    <path d="M 478.58625 313.037969 
L 478.58625 23.077969 
" style="fill: none; stroke: #000000; stroke-width: 0.8; stroke-linejoin: miter; stroke-linecap: square"/>
   </g>
   <g id="patch_5">
    <path d="M 48.90125 313.037969 
L 478.58625 313.037969 
" style="fill: none; stroke: #000000; stroke-width: 0.8; stroke-linejoin: miter; stroke-linecap: square"/>
   </g>
   <g id="patch_6">
    <path d="M 48.90125 23.077969 
L 478.58625 23.077969 
" style="fill: none; stroke: #000000; stroke-width: 0.8; stroke-linejoin: miter; stroke-linecap: square"/>
   </g>
   <g id="text_18">
    <!-- Cumulative Error Distribution -->
    <g transform="translate(168.753359 17.077969) scale(0.13 -0.13)">
     <defs>
      <path id="DejaVuSans-43" d="M 4122 4306 
L 4122 3641 
Q 3803 3938 3442 4084 
Q 3081 4231 2675 4231 
Q 1875 4231 1450 3742 
Q 1025 3253 1025 2328 
Q 1025 1406 1450 917 
Q 1875 428 2675 428 
Q 3081 428 3442 575 
Q 3803 722 4122 1019 
L 4122 359 
Q 3791 134 3420 21 
Q 3050 -91 2638 -91 
Q 1578 -91 968 557 
Q 359 1206 359 2328 
Q 359 3453 968 4101 
Q 1578 4750 2638 4750 
Q 3056 4750 3426 4639 
Q 3797 4528 4122 4306 
z
" transform="scale(0.015625)"/>
      <path id="DejaVuSans-6d" d="M 3328 2828 
Q 3544 3216 3844 3400 
Q 4144 3584 4550 3584 
Q 5097 3584 5394 3201 
Q 5691 2819 5691 2113 
L 5691 0 
L 5113 0 
L 5113 2094 
Q 5113 2597 4934 2840 
Q 4756 3084 4391 3084 
Q 3944 3084 3684 2787 
Q 3425 2491 3425 1978 
L 3425 0 
L 2847 0 
L 2847 2094 
Q 2847 2600 2669 2842 
Q 2491 3084 2119 3084 
Q 1678 3084 1418 2786 
Q 1159 2488 1159 1978 
L 1159 0 
L 581 0 
L 581 3500 
L 1159 3500 
L 1159 2956 
Q 1356 3278 1631 3431 
Q 1906 3584 2284 3584 
Q 2666 3584 2933 3390 
Q 3200 3197 3328 2828 
z
" transform="scale(0.015625)"/>
      <path id="DejaVuSans-76" d="M 191 3500 
L 800 3500 
L 1894 563 
L 2988 3500 
L 3597 3500 
L 2284 0 
L 1503 0 
L 191 3500 
z
" transform="scale(0.015625)"/>
      <path id="DejaVuSans-44" d="M 1259 4147 
L 1259 519 
L 2022 519 
Q 2988 519 3436 956 
Q 3884 1394 3884 2338 
Q 3884 3275 3436 3711 
Q 2988 4147 2022 4147 
L 1259 4147 
z
M 628 4666 
L 1925 4666 
Q 3281 4666 3915 4102 
Q 4550 3538 4550 2338 
Q 4550 1131 3912 565 
Q 3275 0 1925 0 
L 628 0 
L 628 4666 
z
" transform="scale(0.015625)"/>
      <path id="DejaVuSans-62" d="M 3116 1747 
Q 3116 2381 2855 2742 
Q 2594 3103 2138 3103 
Q 1681 3103 1420 2742 
Q 1159 2381 1159 1747 
Q 1159 1113 1420 752 
Q 1681 391 2138 391 
Q 2594 391 2855 752 
Q 3116 1113 3116 1747 
z
M 1159 2969 
Q 1341 3281 1617 3432 
Q 1894 3584 2278 3584 
Q 2916 3584 3314 3078 
Q 3713 2572 3713 1747 
Q 3713 922 3314 415 
Q 2916 -91 2278 -91 
Q 1894 -91 1617 61 
Q 1341 213 1159 525 
L 1159 0 
L 581 0 
L 581 4863 
L 1159 4863 
L 1159 2969 
z
" transform="scale(0.015625)"/>
     </defs>
     <use xlink:href="#DejaVuSans-43"/>
     <use xlink:href="#DejaVuSans-75" transform="translate(69.824219 0)"/>
     <use xlink:href="#DejaVuSans-6d" transform="translate(133.203125 0)"/>
     <use xlink:href="#DejaVuSans-75" transform="translate(230.615234 0)"/>
     <use xlink:href="#DejaVuSans-6c" transform="translate(293.994141 0)"/>
     <use xlink:href="#DejaVuSans-61" transform="translate(321.777344 0)"/>
     <use xlink:href="#DejaVuSans-74" transform="translate(383.056641 0)"/>
     <use xlink:href="#DejaVuSans-69" transform="translate(422.265625 0)"/>
     <use xlink:href="#DejaVuSans-76" transform="translate(450.048828 0)"/>
     <use xlink:href="#DejaVuSans-65" transform="translate(509.228516 0)"/>
     <use xlink:href="#DejaVuSans-20" transform="translate(570.751953 0)"/>
     <use xlink:href="#DejaVuSans-45" transform="translate(602.539062 0)"/>
     <use xlink:href="#DejaVuSans-72" transform="translate(665.722656 0)"/>
     <use xlink:href="#DejaVuSans-72" transform="translate(705.085938 0)"/>
     <use xlink:href="#DejaVuSans-6f" transform="translate(743.949219 0)"/>
     <use xlink:href="#DejaVuSans-72" transform="translate(805.130859 0)"/>
     <use xlink:href="#DejaVuSans-20" transform="translate(846.244141 0)"/>
     <use xlink:href="#DejaVuSans-44" transform="translate(878.03125 0)"/>
     <use xlink:href="#DejaVuSans-69" transform="translate(955.033203 0)"/>
     <use xlink:href="#DejaVuSans-73" transform="translate(982.816406 0)"/>
     <use xlink:href="#DejaVuSans-74" transform="translate(1034.916016 0)"/>
     <use xlink:href="#DejaVuSans-72" transform="translate(1074.125 0)"/>
     <use xlink:href="#DejaVuSans-69" transform="translate(1115.238281 0)"/>
     <use xlink:href="#DejaVuSans-62" transform="translate(1143.021484 0)"/>
     <use xlink:href="#DejaVuSans-75" transform="translate(1206.498047 0)"/>
     <use xlink:href="#DejaVuSans-74" transform="translate(1269.876953 0)"/>
     <use xlink:href="#DejaVuSans-69" transform="translate(1309.085938 0)"/>
     <use xlink:href="#DejaVuSans-6f" transform="translate(1336.869141 0)"/>
     <use xlink:href="#DejaVuSans-6e" transform="translate(1398.050781 0)"/>
    </g>
   </g>
   <g id="legend_1">
    <g id="patch_7">
     <path d="M 354.01125 75.112344 
L 471.58625 75.112344 
Q 473.58625 75.112344 473.58625 73.112344 
L 473.58625 30.077969 
Q 473.58625 28.077969 471.58625 28.077969 
L 354.01125 28.077969 
Q 352.01125 28.077969 352.01125 30.077969 
L 352.01125 73.112344 
Q 352.01125 75.112344 354.01125 75.112344 
z
" style="fill: #ffffff; opacity: 0.8; stroke: #cccccc; stroke-linejoin: miter"/>
    </g>
    <g id="line2d_34">
     <path d="M 356.01125 36.176406 
L 366.01125 36.176406 
L 376.01125 36.176406 
" style="fill: none; stroke: #1f77b4; stroke-width: 2.5; stroke-linecap: square"/>
    </g>
    <g id="text_19">
     <!-- Hough Transform -->
     <g transform="translate(384.01125 39.676406) scale(0.1 -0.1)">
      <defs>
       <path id="DejaVuSans-48" d="M 628 4666 
L 1259 4666 
L 1259 2753 
L 3553 2753 
L 3553 4666 
L 4184 4666 
L 4184 0 
L 3553 0 
L 3553 2222 
L 1259 2222 
L 1259 0 
L 628 0 
L 628 4666 
z
" transform="scale(0.015625)"/>
       <path id="DejaVuSans-66" d="M 2375 4863 
L 2375 4384 
L 1825 4384 
Q 1516 4384 1395 4259 
Q 1275 4134 1275 3809 
L 1275 3500 
L 2222 3500 
L 2222 3053 
L 1275 3053 
L 1275 0 
L 697 0 
L 697 3053 
L 147 3053 
L 147 3500 
L 697 3500 
L 697 3744 
Q 697 4328 969 4595 
Q 1241 4863 1831 4863 
L 2375 4863 
z
" transform="scale(0.015625)"/>
      </defs>
      <use xlink:href="#DejaVuSans-48"/>
      <use xlink:href="#DejaVuSans-6f" transform="translate(75.195312 0)"/>
      <use xlink:href="#DejaVuSans-75" transform="translate(136.376953 0)"/>
      <use xlink:href="#DejaVuSans-67" transform="translate(199.755859 0)"/>
      <use xlink:href="#DejaVuSans-68" transform="translate(263.232422 0)"/>
      <use xlink:href="#DejaVuSans-20" transform="translate(326.611328 0)"/>
      <use xlink:href="#DejaVuSans-54" transform="translate(358.398438 0)"/>
      <use xlink:href="#DejaVuSans-72" transform="translate(404.732422 0)"/>
      <use xlink:href="#DejaVuSans-61" transform="translate(445.845703 0)"/>
      <use xlink:href="#DejaVuSans-6e" transform="translate(507.125 0)"/>
      <use xlink:href="#DejaVuSans-73" transform="translate(570.503906 0)"/>
      <use xlink:href="#DejaVuSans-66" transform="translate(622.603516 0)"/>
      <use xlink:href="#DejaVuSans-6f" transform="translate(657.808594 0)"/>
      <use xlink:href="#DejaVuSans-72" transform="translate(718.990234 0)"/>
      <use xlink:href="#DejaVuSans-6d" transform="translate(758.353516 0)"/>
     </g>
    </g>
    <g id="line2d_35">
     <path d="M 356.01125 50.854531 
L 366.01125 50.854531 
L 376.01125 50.854531 
" style="fill: none; stroke: #ff7f0e; stroke-width: 2.5; stroke-linecap: square"/>
    </g>
    <g id="text_20">
     <!-- CNN -->
     <g transform="translate(384.01125 54.354531) scale(0.1 -0.1)">
      <defs>
       <path id="DejaVuSans-4e" d="M 628 4666 
L 1478 4666 
L 3547 763 
L 3547 4666 
L 4159 4666 
L 4159 0 
L 3309 0 
L 1241 3903 
L 1241 0 
L 628 0 
L 628 4666 
z
" transform="scale(0.015625)"/>
      </defs>
      <use xlink:href="#DejaVuSans-43"/>
      <use xlink:href="#DejaVuSans-4e" transform="translate(69.824219 0)"/>
      <use xlink:href="#DejaVuSans-4e" transform="translate(144.628906 0)"/>
     </g>
    </g>
    <g id="line2d_36">
     <path d="M 356.01125 65.532656 
L 366.01125 65.532656 
L 376.01125 65.532656 
" style="fill: none; stroke: #2ca02c; stroke-width: 2.5; stroke-linecap: square"/>
    </g>
    <g id="text_21">
     <!-- FFT -->
     <g transform="translate(384.01125 69.032656) scale(0.1 -0.1)">
      <defs>
       <path id="DejaVuSans-46" d="M 628 4666 
L 3309 4666 
L 3309 4134 
L 1259 4134 
L 1259 2759 
L 3109 2759 
L 3109 2228 
L 1259 2228 
L 1259 0 
L 628 0 
L 628 4666 
z
" transform="scale(0.015625)"/>
      </defs>
      <use xlink:href="#DejaVuSans-46"/>
      <use xlink:href="#DejaVuSans-46" transform="translate(57.519531 0)"/>
      <use xlink:href="#DejaVuSans-54" transform="translate(113.289062 0)"/>
     </g>
    </g>
   </g>
  </g>
 </g>
 <defs>
  <clipPath id="p1c5399136b">
   <rect x="48.90125" y="23.077969" width="429.685" height="289.96"/>
  </clipPath>
 </defs>
</svg>
